<svg width="30" height="24" viewBox="0 0 30 24" fill="none" xmlns="http://www.w3.org/2000/svg">
<path d="M12.1144 16.0637C11.1542 16.3321 10.4283 17.0088 10.0695 17.4624C9.91786 17.6569 9.85029 17.9763 9.73263 18.1946C9.68061 18.2899 8.98199 19.64 8.35337 20.0435C7.65913 20.4845 7.03245 20.5802 6.69651 21.273C6.56136 21.5497 6.50496 21.854 6.54774 22.1452C6.61046 22.5905 6.90216 23.0101 7.49966 23.2702C8.49339 23.7039 12.0555 23.3067 14.0415 20.8535C14.6167 20.2579 14.8714 19.4105 14.975 18.6336C15.1899 17.0122 13.6915 15.6242 12.1144 16.0637Z" fill="#32ABF2"/>
<path d="M9.76097 16.096C9.79014 16.0523 9.81931 16.0104 9.84945 15.957C9.89564 15.8763 9.94328 15.7849 9.99385 15.6871C9.26946 15.2262 8.22662 14.4051 8.18092 14.3691L8.10751 14.3123L8.11043 14.3084C8.04237 14.2534 7.9743 14.2024 7.90575 14.1431C7.7531 14.18 7.60627 14.2233 7.46869 14.2748C6.60574 14.5976 6.02525 15.1776 5.61347 15.6205C5.47588 15.7683 5.35775 15.9001 5.24982 16.0051C4.65864 16.5759 4.01009 16.9001 3.73054 17.0241C3.67366 17.0601 3.6158 17.0961 3.55698 17.132C2.52581 17.7621 2.58027 18.7641 2.69354 19.1491C2.80682 19.5342 3.24048 20.5702 4.69607 20.5444C5.82349 20.5245 7.05058 19.9251 7.54696 19.6557C7.54696 19.6557 9.64721 18.3081 10.429 16.6916C10.4304 16.6911 10.1635 16.4597 9.76097 16.096Z" fill="#32ABF2"/>
<path d="M6.59752 12.5268C6.3311 12.1665 6.0958 11.815 5.92613 11.5481C5.85806 11.4402 5.80069 11.3473 5.75548 11.2715C5.55566 11.324 5.30675 11.4086 5.03449 11.5476C4.38011 11.8821 3.71114 12.0649 3.31346 11.9113C2.91626 11.7572 2.04213 11.3653 1.42129 11.8092C0.800452 12.2531 0.599666 13.0659 0.942901 13.6668C1.23801 14.1836 2.00275 14.9985 2.86667 15.33C2.86667 15.33 4.85072 16.2795 7.13231 14.3008C9.09789 12.5968 7.46436 12.5078 6.59752 12.5268Z" fill="#32ABF2"/>
<path d="M14.9848 19.1288C20.2681 19.1288 24.5511 14.8458 24.5511 9.56242C24.5511 4.27909 20.2681 -0.00390625 14.9848 -0.00390625C9.70145 -0.00390625 5.41846 4.27909 5.41846 9.56242C5.41846 14.8458 9.70145 19.1288 14.9848 19.1288Z" fill="#32ABF2"/>
<path d="M17.8558 16.0637C18.816 16.3321 19.5418 17.0088 19.9006 17.4624C20.0523 17.6569 20.1199 17.9763 20.2375 18.1946C20.2895 18.2899 20.9882 19.64 21.6168 20.0435C22.3105 20.4845 22.9377 20.5802 23.2736 21.273C23.4088 21.5497 23.4652 21.854 23.4224 22.1452C23.3597 22.5905 23.068 23.0101 22.4705 23.2702C21.4767 23.7039 17.9146 23.3067 15.9286 20.8535C15.3535 20.2579 15.0987 19.4105 14.9952 18.6336C14.7808 17.0122 16.2791 15.6242 17.8558 16.0637Z" fill="#32ABF2"/>
<path d="M20.209 16.096C20.1798 16.0523 20.1507 16.0104 20.1205 15.957C20.0743 15.8763 20.0267 15.7849 19.9761 15.6871C20.7005 15.2262 21.7434 14.4051 21.7891 14.3691L21.8625 14.3123L21.8595 14.3084C21.9276 14.2534 21.9957 14.2024 22.0637 14.1431C22.2164 14.18 22.3632 14.2233 22.5008 14.2748C23.3637 14.5976 23.9442 15.1776 24.356 15.6205C24.4936 15.7683 24.6117 15.9001 24.7197 16.0051C25.3109 16.5759 25.9594 16.9001 26.2389 17.0241C26.2958 17.0601 26.3537 17.0961 26.4125 17.132C27.4437 17.7621 27.3892 18.7641 27.2759 19.1491C27.1627 19.5342 26.729 20.5702 25.2734 20.5444C24.1465 20.5245 22.9189 19.9251 22.4225 19.6557C22.4225 19.6557 20.3218 18.3081 19.54 16.6916C19.5396 16.6911 19.8069 16.4597 20.209 16.096Z" fill="#32ABF2"/>
<path d="M23.3734 12.5268C23.6399 12.1665 23.8752 11.815 24.0448 11.5481C24.1129 11.4402 24.1703 11.3473 24.2155 11.2715C24.4153 11.324 24.6642 11.4086 24.9365 11.5476C25.5909 11.8821 26.2598 12.0649 26.6575 11.9113C27.0547 11.7572 27.9288 11.3653 28.5497 11.8092C29.1705 12.2531 29.3713 13.0659 29.0281 13.6668C28.733 14.1836 27.9682 14.9985 27.1043 15.33C27.1043 15.33 25.1202 16.2795 22.8387 14.3008C20.8731 12.5968 22.5066 12.5078 23.3734 12.5268Z" fill="#32ABF2"/>
<path d="M11.6877 10.185C12.1528 10.185 12.5298 9.70529 12.5298 9.11351C12.5298 8.52173 12.1528 8.04199 11.6877 8.04199C11.2227 8.04199 10.8457 8.52173 10.8457 9.11351C10.8457 9.70529 11.2227 10.185 11.6877 10.185Z" fill="#34056F"/>
<path d="M12.0245 8.65557C12.0245 8.86608 11.8539 9.03673 11.6434 9.03673C11.4329 9.03673 11.2622 8.86608 11.2622 8.65557C11.2622 8.44506 11.4329 8.27442 11.6434 8.27442C11.8539 8.27393 12.0245 8.44457 12.0245 8.65557Z" fill="#F9F9F9"/>
<path d="M18.2825 10.185C18.7475 10.185 19.1245 9.70529 19.1245 9.11351C19.1245 8.52173 18.7475 8.04199 18.2825 8.04199C17.8174 8.04199 17.4404 8.52173 17.4404 9.11351C17.4404 9.70529 17.8174 10.185 18.2825 10.185Z" fill="#34056F"/>
<path d="M18.6188 8.65557C18.6188 8.86608 18.4481 9.03673 18.2376 9.03673C18.0271 9.03673 17.8564 8.86608 17.8564 8.65557C17.8564 8.44506 18.0271 8.27442 18.2376 8.27442C18.4481 8.27393 18.6188 8.44457 18.6188 8.65557Z" fill="#F9F9F9"/>
<path d="M16.5336 12.4104C16.4534 13.3769 16.1282 14.6084 14.9857 14.6084C14.4217 14.6084 14.0571 14.3084 13.8232 13.8884C14.1072 13.2806 14.8588 12.1984 16.5336 12.4104Z" fill="#EB5A55"/>
<path d="M16.5334 12.4106C14.858 12.1986 14.1069 13.2808 13.823 13.8885C13.2736 12.9079 13.436 11.2715 13.436 11.2715C13.8983 11.4698 14.9854 11.4295 14.9854 11.4295C14.9854 11.4295 16.071 11.4698 16.5348 11.2715C16.5348 11.2715 16.5859 11.7863 16.5334 12.4106Z" fill="#79292A"/>
</svg>
